<svg width="65.1376mm" height="63.29874mm" version="1.1" viewBox="0 0 65.13759 63.29874" xmlns="http://www.w3.org/2000/svg">
 <g transform="matrix(13.1544 13.1544 -13.1544 13.1544 -780.2316 -1489.281)" style="fill:none;stroke:#fa741c">
  <path transform="matrix(-.00168257 -.9999986 .9983408 -.05758155 0 0)" d="m-30.11932 88.83404a1.911048 1.073049 0 0 1-1.970029 1.037252 1.911048 1.073049 0 0 1-1.850177-1.104647 1.911048 1.073049 0 0 1 1.964612-1.040487 1.911048 1.073049 0 0 1 1.855929 1.101601" style="fill:none;font-variation-settings:'wdth' 121.8, 'wght' 886;paint-order:markers stroke fill;stroke-linecap:round;stroke-linejoin:round;stroke-width:.352968;stroke:#fa741c"/>
  <path transform="matrix(-.9999986 -.00168257 -.05758155 .9983408 0 0)" d="m-88.33912 26.84398a1.911048 1.073049 0 0 1-1.970029 1.037252 1.911048 1.073049 0 0 1-1.850177-1.104648 1.911048 1.073049 0 0 1 1.964612-1.040486 1.911048 1.073049 0 0 1 1.85593 1.101601" style="fill:none;font-variation-settings:'wdth' 121.8, 'wght' 886;paint-order:markers stroke fill;stroke-linecap:round;stroke-linejoin:round;stroke-width:.352968;stroke:#fa741c"/>
 </g>
</svg>
